<svg width="512" height="512" viewBox="0 0 512 512" fill="none" xmlns="http://www.w3.org/2000/svg">
<path d="M280 64H232C229.878 64 227.843 63.1571 226.343 61.6569C224.843 60.1566 224 58.1217 224 56C224 53.8783 224.843 51.8434 226.343 50.3431C227.843 48.8429 229.878 48 232 48H280C282.122 48 284.157 48.8429 285.657 50.3431C287.157 51.8434 288 53.8783 288 56C288 58.1217 287.157 60.1566 285.657 61.6569C284.157 63.1571 282.122 64 280 64ZM344 496H168C157.395 495.987 147.228 491.769 139.73 484.27C132.231 476.772 128.013 466.605 128 456V184C128 181.878 128.843 179.843 130.343 178.343C131.843 176.843 133.878 176 136 176C138.122 176 140.157 176.843 141.657 178.343C143.157 179.843 144 181.878 144 184V456C144 469.232 154.768 480 168 480H344C357.232 480 368 469.232 368 456V184C368 181.878 368.843 179.843 370.343 178.343C371.843 176.843 373.878 176 376 176C378.122 176 380.157 176.843 381.657 178.343C383.157 179.843 384 181.878 384 184V456C384 478.048 366.064 496 344 496Z" fill="#FF660E"/>
<path d="M376 240C373.878 240 371.843 239.157 370.343 237.657C368.843 236.157 368 234.122 368 232V56C368 42.768 357.232 32 344 32H168C154.768 32 144 42.768 144 56V232C144 234.122 143.157 236.157 141.657 237.657C140.157 239.157 138.122 240 136 240C133.878 240 131.843 239.157 130.343 237.657C128.843 236.157 128 234.122 128 232V56C128 33.952 145.936 16 168 16H344C366.064 16 384 33.952 384 56V232C384 234.122 383.157 236.157 381.657 237.657C380.157 239.157 378.122 240 376 240ZM424 96.8C419.584 96.8 416 94.016 416 89.6V88C416 85.8783 416.843 83.8434 418.343 82.3431C419.843 80.8429 421.878 80 424 80C426.122 80 428.157 80.8429 429.657 82.3431C431.157 83.8434 432 85.8783 432 88C432 92.416 428.416 96.8 424 96.8ZM424 128.8C419.584 128.8 416 126.016 416 121.6V120C416 117.878 416.843 115.843 418.343 114.343C419.843 112.843 421.878 112 424 112C426.122 112 428.157 112.843 429.657 114.343C431.157 115.843 432 117.878 432 120C432 124.416 428.416 128.8 424 128.8ZM424 160.8C419.584 160.8 416 158.016 416 153.6V152C416 149.878 416.843 147.843 418.343 146.343C419.843 144.843 421.878 144 424 144C426.122 144 428.157 144.843 429.657 146.343C431.157 147.843 432 149.878 432 152C432 156.416 428.416 160.8 424 160.8ZM88 367.2C83.584 367.2 80 364.416 80 360V358.4C80 356.278 80.8429 354.243 82.3431 352.743C83.8434 351.243 85.8783 350.4 88 350.4C90.1217 350.4 92.1566 351.243 93.6569 352.743C95.1571 354.243 96 356.278 96 358.4C96 362.816 92.416 367.2 88 367.2ZM88 399.2C83.584 399.2 80 396.416 80 392V390.4C80 388.278 80.8429 386.243 82.3431 384.743C83.8434 383.243 85.8783 382.4 88 382.4C90.1217 382.4 92.1566 383.243 93.6569 384.743C95.1571 386.243 96 388.278 96 390.4C96 394.816 92.416 399.2 88 399.2ZM88 431.2C83.584 431.2 80 428.416 80 424V422.4C80 420.278 80.8429 418.243 82.3431 416.743C83.8434 415.243 85.8783 414.4 88 414.4C90.1217 414.4 92.1566 415.243 93.6569 416.743C95.1571 418.243 96 420.278 96 422.4C96 426.816 92.416 431.2 88 431.2Z" fill="#FF660E"/>
<path d="M397.456 432C396.263 432 395.084 431.734 394.007 431.22C392.93 430.706 391.982 429.957 391.232 429.029C390.482 428.101 389.949 427.017 389.672 425.856C389.395 424.695 389.381 423.487 389.632 422.32L394.912 397.84C395.227 396.37 395.951 395.019 397.002 393.943C398.052 392.867 399.386 392.11 400.848 391.76C408.568 389.867 415.947 386.785 422.72 382.624C423.997 381.844 425.467 381.439 426.963 381.453C428.46 381.467 429.922 381.901 431.184 382.704L447.024 392.832L456.832 382.944L446.704 367.232C445.891 365.969 445.45 364.502 445.43 363C445.41 361.498 445.813 360.02 446.592 358.736C450.755 351.966 453.832 344.586 455.712 336.864C456.064 335.406 456.817 334.076 457.886 333.024C458.955 331.972 460.297 331.241 461.76 330.912L480 326.864V313.152L461.776 309.104C460.313 308.775 458.971 308.044 457.902 306.992C456.833 305.94 456.08 304.61 455.728 303.152C453.841 295.432 450.764 288.054 446.608 281.28C445.822 280.001 445.414 278.527 445.431 277.026C445.448 275.526 445.889 274.06 446.704 272.8L456.848 256.944L447.056 247.152L431.2 257.296C429.939 258.103 428.476 258.539 426.979 258.553C425.483 258.567 424.012 258.159 422.736 257.376C415.96 253.221 408.582 250.139 400.864 248.24C399.402 247.89 398.068 247.133 397.018 246.057C395.968 244.981 395.243 243.63 394.928 242.16L390.992 224H384C381.878 224 379.843 223.157 378.343 221.657C376.843 220.157 376 218.122 376 216C376 213.878 376.843 211.843 378.343 210.343C379.843 208.843 381.878 208 384 208H397.44C399.268 208.003 401.039 208.632 402.46 209.782C403.88 210.932 404.864 212.533 405.248 214.32L409.52 234.048C415.376 235.824 421.12 238.224 426.656 241.216L443.84 230.224C445.377 229.242 447.203 228.815 449.016 229.013C450.828 229.21 452.519 230.022 453.808 231.312L472.704 250.192C473.992 251.483 474.8 253.174 474.995 254.987C475.19 256.8 474.76 258.625 473.776 260.16L462.784 277.344C465.776 282.896 468.176 288.64 469.952 294.512L489.712 298.896C493.392 299.712 496 302.976 496 306.72V333.28C495.999 335.101 495.377 336.867 494.237 338.287C493.097 339.707 491.506 340.695 489.728 341.088L469.968 345.472C468.162 351.416 465.761 357.163 462.8 362.624L473.776 379.648C474.77 381.178 475.209 383.002 475.019 384.816C474.83 386.63 474.024 388.325 472.736 389.616L453.84 408.656C452.551 409.95 450.858 410.765 449.042 410.966C447.227 411.167 445.397 410.741 443.856 409.76L426.672 398.768C421.213 401.723 415.473 404.124 409.536 405.936L405.264 425.664C404.881 427.452 403.897 429.056 402.477 430.208C401.057 431.361 399.285 431.993 397.456 432Z" fill="#FF660E"/>
<path d="M406.256 361.248C404.543 361.245 402.876 360.692 401.5 359.67C400.125 358.649 399.114 357.213 398.616 355.574C398.118 353.934 398.159 352.178 398.734 350.564C399.308 348.95 400.386 347.563 401.808 346.608C407.949 342.47 412.466 336.332 414.591 329.238C416.716 322.145 416.318 314.534 413.465 307.701C410.611 300.868 405.478 295.235 398.94 291.76C392.401 288.284 384.86 287.182 377.6 288.64C376.57 288.851 375.509 288.857 374.477 288.658C373.445 288.46 372.463 288.059 371.585 287.481C370.708 286.902 369.953 286.156 369.364 285.286C368.775 284.415 368.363 283.437 368.152 282.408C367.941 281.378 367.935 280.317 368.133 279.285C368.332 278.253 368.733 277.271 369.311 276.393C369.89 275.516 370.636 274.761 371.506 274.172C372.377 273.583 373.354 273.171 374.384 272.96C381.359 271.546 388.56 271.698 395.469 273.405C402.377 275.113 408.821 278.333 414.333 282.834C419.846 287.335 424.29 293.003 427.345 299.431C430.401 305.858 431.99 312.883 432 320C432.002 327.887 430.059 335.652 426.345 342.61C422.631 349.567 417.258 355.501 410.704 359.888C409.389 360.773 407.841 361.246 406.256 361.248ZM128 240C117.687 240.014 107.644 236.704 99.3592 230.562C91.0745 224.42 84.9891 215.772 82.0049 205.901C79.0207 196.029 79.2965 185.458 82.7914 175.755C86.2863 166.052 92.8143 157.734 101.408 152.032C103.173 150.93 105.299 150.559 107.333 150.998C109.367 151.437 111.15 152.652 112.304 154.384C113.457 156.116 113.89 158.23 113.511 160.276C113.131 162.322 111.97 164.14 110.272 165.344C104.131 169.466 99.6065 175.586 97.4652 182.665C95.3239 189.744 95.6983 197.346 98.5248 204.181C101.351 211.015 106.456 216.661 112.972 220.16C119.488 223.659 127.014 224.795 134.272 223.376C136.353 222.965 138.511 223.394 140.277 224.569C142.042 225.744 143.271 227.57 143.696 229.648C143.903 230.678 143.906 231.738 143.703 232.769C143.5 233.799 143.095 234.779 142.512 235.653C141.93 236.527 141.18 237.278 140.307 237.862C139.434 238.446 138.454 238.851 137.424 239.056C134.323 239.687 131.165 240.004 128 240Z" fill="#FF660E"/>
<path d="M128 304H114.56C112.732 303.997 110.961 303.368 109.54 302.218C108.12 301.069 107.136 299.467 106.752 297.68L102.48 277.952C96.5421 276.143 90.8012 273.742 85.344 270.784L68.16 281.776C66.6233 282.758 64.7972 283.185 62.9844 282.988C61.1715 282.79 59.4807 281.978 58.192 280.688L39.296 261.808C38.0082 260.517 37.1999 258.826 37.0049 257.013C36.8099 255.2 37.2401 253.375 38.224 251.84L49.216 234.656C46.258 229.188 43.8566 223.436 42.048 217.488L22.288 213.104C20.5058 212.711 18.9111 211.721 17.7678 210.298C16.6244 208.875 16.0008 207.105 16 205.28V178.72C16.0007 176.899 16.6226 175.133 17.763 173.713C18.9034 172.294 20.494 171.305 22.272 170.912L42.032 166.528C43.808 160.656 46.208 154.912 49.2 149.376L38.24 132.336C37.2462 130.807 36.8073 128.982 36.9966 127.168C37.1859 125.354 37.9919 123.66 39.28 122.368L58.176 103.328C59.4607 102.026 61.1541 101.206 62.9721 101.005C64.7901 100.804 66.6219 101.234 68.16 102.224L85.344 113.216C90.8026 110.261 96.5432 107.86 102.48 106.048L106.752 86.3201C106.946 85.2664 107.349 84.2624 107.938 83.3677C108.528 82.4729 109.29 81.7055 110.182 81.1112C111.073 80.5168 112.075 80.1075 113.127 79.9076C114.18 79.7077 115.262 79.7212 116.309 79.9474C117.356 80.1735 118.347 80.6077 119.223 81.2242C120.1 81.8406 120.843 82.6268 121.41 83.536C121.976 84.4453 122.354 85.459 122.522 86.5172C122.689 87.5754 122.642 88.6564 122.384 89.6961L117.104 114.176C116.789 115.646 116.065 116.998 115.014 118.073C113.964 119.149 112.63 119.906 111.168 120.256C103.444 122.152 96.06 125.234 89.28 129.392C88.0029 130.172 86.5327 130.577 85.0366 130.563C83.5404 130.549 82.0782 130.116 80.816 129.312L64.976 119.184L55.152 129.072L65.28 144.784C66.1002 146.045 66.546 147.512 66.5659 149.016C66.5857 150.52 66.1787 151.998 65.392 153.28C61.2294 160.05 58.1522 167.43 56.272 175.152C55.9201 176.61 55.167 177.94 54.0982 178.992C53.0293 180.044 51.6872 180.776 50.224 181.104L32 185.136V198.848L50.224 202.896C51.6872 203.225 53.0293 203.956 54.0982 205.008C55.167 206.06 55.9201 207.39 56.272 208.848C58.08 216.4 61.168 223.76 65.392 230.72C66.992 233.328 66.96 236.624 65.296 239.2L55.152 255.04L64.944 264.832L80.8 254.688C82.0635 253.888 83.5252 253.457 85.0206 253.443C86.516 253.429 87.9856 253.832 89.264 254.608C96.24 258.848 103.6 261.92 111.136 263.744C112.598 264.094 113.932 264.851 114.982 265.927C116.032 267.003 116.757 268.354 117.072 269.824L121.008 288H128C130.122 288 132.157 288.843 133.657 290.343C135.157 291.844 136 293.878 136 296C136 298.122 135.157 300.157 133.657 301.657C132.157 303.157 130.122 304 128 304ZM248 296C246.784 296.003 245.583 295.728 244.489 295.196C243.396 294.664 242.438 293.889 241.689 292.93C240.941 291.972 240.421 290.855 240.17 289.665C239.919 288.475 239.943 287.243 240.24 286.064L256.24 222.064C256.487 221.041 256.935 220.077 257.558 219.228C258.181 218.38 258.966 217.664 259.868 217.122C260.771 216.58 261.772 216.223 262.814 216.071C263.855 215.92 264.917 215.977 265.936 216.24C266.956 216.493 267.916 216.944 268.761 217.569C269.606 218.193 270.32 218.978 270.861 219.879C271.402 220.78 271.76 221.778 271.914 222.818C272.069 223.857 272.016 224.917 271.76 225.936L255.76 289.936C255.333 291.67 254.336 293.211 252.929 294.311C251.522 295.41 249.786 296.005 248 296ZM296 296C294.419 296 292.873 295.531 291.559 294.653C290.244 293.775 289.219 292.527 288.613 291.067C288.007 289.606 287.847 287.999 288.154 286.448C288.46 284.897 289.22 283.472 290.336 282.352L316.688 256L290.352 229.664C288.895 228.155 288.088 226.134 288.107 224.037C288.125 221.939 288.966 219.933 290.449 218.45C291.933 216.966 293.939 216.125 296.037 216.107C298.134 216.088 300.155 216.895 301.664 218.352L333.664 250.352C335.164 251.852 336.006 253.887 336.006 256.008C336.006 258.129 335.164 260.164 333.664 261.664L301.664 293.664C300.159 295.161 298.122 296 296 296ZM216 296C213.878 296 211.841 295.161 210.336 293.664L178.336 261.664C176.836 260.164 175.994 258.129 175.994 256.008C175.994 253.887 176.836 251.852 178.336 250.352L210.336 218.352C211.845 216.895 213.866 216.088 215.963 216.107C218.061 216.125 220.067 216.966 221.551 218.45C223.034 219.933 223.875 221.939 223.893 224.037C223.912 226.134 223.105 228.155 221.648 229.664L195.312 256L221.648 282.336C222.769 283.454 223.533 284.879 223.843 286.432C224.153 287.984 223.996 289.593 223.392 291.056C222.787 292.519 221.762 293.77 220.446 294.65C219.13 295.53 217.583 296 216 296Z" fill="#FF660E"/>
</svg>
