<svg width="464" height="512" viewBox="0 0 464 512" fill="none" xmlns="http://www.w3.org/2000/svg">
<path d="M423.174 66.5829H417.099C428.679 47.7302 424.403 22.4197 405.819 8.63101C385.794 -6.2247 357.338 -1.44279 343.363 19.4408L311.817 66.5839H40.8258C18.5512 66.5839 0.429565 84.7055 0.429565 106.98V365.249C0.429565 387.524 18.5512 405.645 40.8258 405.645H197.737L185.881 455.441H160.292C143.616 455.441 130.048 469.008 130.048 485.685V492H98.5036C92.9808 492 88.5038 496.477 88.5038 501.999C88.5038 507.521 92.9808 511.999 98.5036 511.999H365.497C371.02 511.999 375.497 507.521 375.497 501.999C375.497 496.477 371.02 492 365.497 492H333.953V485.685C333.953 469.008 320.385 455.441 303.709 455.441H278.12L266.264 405.645H423.175C445.45 405.645 463.572 387.524 463.572 365.249V106.979C463.572 84.7045 445.45 66.5829 423.174 66.5829ZM279.895 242.378C264.26 253.323 234.97 238.447 206.999 253.372C200.174 217.918 204.477 184.574 240.001 177.214C244.592 176.257 249.535 175.824 253.743 175.908L289.918 202.748C295.167 218.016 293.197 233.068 279.895 242.378ZM289.973 135.193L318.279 156.194L296.511 182.735L270.883 163.72L289.973 135.193ZM359.986 30.5636C367.559 19.2428 383.006 16.6089 393.902 24.6937C404.802 32.7795 406.754 48.3252 398.117 58.856L330.976 140.713L301.107 118.552L359.986 30.5636ZM313.952 485.685V492H150.048V485.685C150.048 480.037 154.644 475.441 160.292 475.441H303.708C309.357 475.441 313.952 480.037 313.952 485.685ZM257.561 455.441H206.44L218.295 405.645H245.705L257.561 455.441ZM443.572 365.249C443.572 376.496 434.422 385.646 423.175 385.646H40.8268C29.58 385.646 20.4302 376.496 20.4302 365.249V318.42H49.0056C54.5285 318.42 59.0054 313.942 59.0054 308.42C59.0054 302.898 54.5285 298.42 49.0056 298.42H20.4282V106.979C20.4282 95.7323 29.578 86.5825 40.8248 86.5825H298.435L252.054 155.895C232.457 156.072 212.892 162.899 200.085 177.851C182.656 198.195 179.594 230.163 190.984 272.864C192.931 280.166 202.042 282.782 207.555 277.516C233.411 252.809 265.614 279.759 294.453 256.417C312.056 242.167 316.222 219.514 309.585 198.33L401.241 86.5825H423.173C434.42 86.5825 443.57 95.7323 443.57 106.979V298.419H129.002C123.479 298.419 119.002 302.897 119.002 308.419C119.002 313.941 123.479 318.419 129.002 318.419H443.572V365.249Z" fill="#FF660E"/>
<path d="M87.0731 298.613C84.8042 299.065 82.7623 300.289 81.296 302.079C79.8297 303.868 79.0299 306.111 79.0331 308.424C79.0331 314.679 84.7521 319.469 90.9831 318.224C93.5833 317.705 95.8709 316.175 97.343 313.97C98.815 311.764 99.351 309.065 98.8331 306.464C97.7201 300.994 92.4141 297.538 87.0731 298.613Z" fill="#FF660E"/>
</svg>
