<svg width="512" height="512" viewBox="0 0 512 512" fill="none" xmlns="http://www.w3.org/2000/svg">
<mask id="mask0_71_3439" style="mask-type:luminance" maskUnits="userSpaceOnUse" x="0" y="0" width="512" height="512">
<path d="M511.499 511.499V0.500031H0.499999V511.499H511.499Z" fill="white" stroke="white" stroke-width="0.999997"/>
</mask>
<g mask="url(#mask0_71_3439)">
<path d="M10 155.326H465.518" stroke="#FF660E" stroke-miterlimit="10" stroke-linecap="round" stroke-linejoin="round"/>
<path d="M93.5069 112.771C106.603 112.771 117.289 102.12 117.289 89.0306C117.289 75.9416 106.603 65.2896 93.5069 65.2896C80.4399 65.2896 69.7529 75.9416 69.7529 89.0306C69.7529 102.12 80.4399 112.771 93.5069 112.771Z" stroke="#FF660E" stroke-miterlimit="10" stroke-linecap="round" stroke-linejoin="round"/>
<path d="M299.949 65.2896H389.409C402.476 65.2896 413.163 75.9706 413.163 89.0306C413.163 102.092 402.476 112.771 389.409 112.771H299.949C286.882 112.771 276.195 102.092 276.195 89.0306C276.195 75.9706 286.882 65.2896 299.949 65.2896Z" stroke="#FF660E" stroke-miterlimit="10" stroke-linecap="round" stroke-linejoin="round"/>
<path d="M181.209 112.771C194.304 112.771 204.99 102.12 204.99 89.0306C204.99 75.9416 194.304 65.2896 181.209 65.2896C168.142 65.2896 157.455 75.9416 157.455 89.0306C157.455 102.12 168.142 112.771 181.209 112.771Z" stroke="#FF660E" stroke-miterlimit="10" stroke-linecap="round" stroke-linejoin="round"/>
<path d="M162.416 232.243L142.403 315.99" stroke="#FF660E" stroke-miterlimit="10" stroke-linecap="round" stroke-linejoin="round"/>
<path d="M208.506 308.426L236.823 276.638C238.07 275.25 238.07 272.984 236.823 271.596L208.506 239.808" stroke="#FF660E" stroke-miterlimit="10" stroke-linecap="round" stroke-linejoin="round"/>
<path d="M96.3137 308.426L67.9968 276.638C66.7488 275.25 66.7488 272.984 67.9968 271.596L96.3137 239.808" stroke="#FF660E" stroke-width="20.1759" stroke-miterlimit="10" stroke-linecap="round" stroke-linejoin="round"/>
<path d="M404.518 276.439C415.459 278.876 425.692 283.182 434.905 288.961L443.097 280.802C447.944 275.929 455.909 275.929 460.785 280.802L473.682 293.693C478.557 298.566 478.557 306.527 473.682 311.372L465.518 319.559C471.349 328.81 475.566 338.984 477.991 349.647H489.47C496.359 349.647 501.998 355.285 501.998 362.141V380.415C501.998 387.27 496.359 392.908 489.47 392.908H477.934C475.503 403.507 471.306 413.621 465.518 422.826L473.682 430.985C478.557 435.858 478.557 443.819 473.682 448.664L460.785 461.583C455.909 466.456 447.944 466.456 443.097 461.583L434.905 453.423C425.663 459.235 415.504 463.441 404.858 465.861V477.476C404.858 484.361 399.217 489.999 392.358 489.999H374.075C367.214 489.999 361.574 484.361 361.574 477.476V465.833C350.802 463.396 340.683 459.118 331.583 453.423L323.42 461.583C318.544 466.456 310.58 466.456 305.732 461.583L292.807 448.664C287.959 443.819 287.959 435.858 292.807 430.985L300.998 422.826C295.19 413.628 290.982 403.512 288.555 392.908H276.961C270.074 392.908 264.46 387.27 264.46 380.415V362.141C264.46 355.285 270.074 349.647 276.961 349.647H288.527C290.926 339.106 295.074 329.041 300.8 319.871L292.58 311.627C287.705 306.782 287.705 298.821 292.58 293.948L305.477 281.057C310.353 276.184 318.318 276.184 323.165 281.057L331.3 289.16C340.504 283.329 350.623 279.087 361.234 276.609V265.079C361.234 258.194 366.846 252.556 373.734 252.556H391.989C398.877 252.556 404.518 258.194 404.518 265.079V276.439Z" stroke="#FF660E" stroke-width="20.1759" stroke-miterlimit="10" stroke-linecap="round" stroke-linejoin="round"/>
<path d="M383.229 319.758C411.688 319.758 434.762 342.82 434.762 371.292C434.762 399.737 411.688 422.798 383.229 422.798C354.742 422.798 331.667 399.737 331.667 371.292C331.667 342.82 354.742 319.758 383.229 319.758Z" stroke="#FF660E" stroke-miterlimit="10" stroke-linecap="round" stroke-linejoin="round"/>
<path d="M106.433 392.909H47.2459C26.7819 392.909 10 372.88 10 348.43V66.4797C10 42.0027 26.7519 22.0008 47.2459 22.0008H428.272C448.766 22.0008 465.518 42.0307 465.518 66.4797V285.535M276.961 392.909H195.807" stroke="#FF660E" stroke-width="20.1759" stroke-miterlimit="10" stroke-linecap="round" stroke-linejoin="round"/>
<path d="M151.219 392.909H151.417" stroke="#FF660E" stroke-width="20.1759" stroke-miterlimit="10" stroke-linecap="round" stroke-linejoin="round"/>
</g>
</svg>
