<svg width="512" height="512" viewBox="0 0 512 512" fill="none" xmlns="http://www.w3.org/2000/svg">
<g clip-path="url(#clip0_72_3470)">
<path d="M123.165 446.571H56.563M89.742 209.816H130.565M89.742 249.778H130.565M89.742 289.739H130.565M49.162 209.816H53.447M49.162 249.778H53.447M49.162 289.739H53.447M84.339 7.5V66.259M12.161 7.5V47.933C12.161 54.819 15.577 59.455 21.379 63.162C24.205 64.968 27.774 66.254 32.21 66.26C36.051 66.265 39.262 65.376 41.916 64.039C48.678 60.634 52.99 55.462 52.99 47.891V7.5M242.971 7.5L284.307 66.259M281.398 7.5L240.004 66.259M175.414 7.5V47.933C175.414 54.819 178.83 59.455 184.632 63.162C187.458 64.968 191.027 66.254 195.463 66.26C199.304 66.265 202.515 65.376 205.169 64.039C211.931 60.634 216.243 55.462 216.243 47.891V7.5M143.466 7.5L118.618 66.259M12.161 114.341H499.839M447.554 7.7H499.839M499.839 36.879H447.554M499.839 66.059H447.554M53 388.643H32.161C21.115 388.643 12.161 397.597 12.161 408.643V484.5C12.161 495.546 21.115 504.5 32.161 504.5H147.567C158.613 504.5 167.567 495.546 167.567 484.5V408.643C167.567 397.597 158.613 388.643 147.567 388.643H88M12.161 250.211V316.948C12.161 327.994 21.115 336.948 32.161 336.948H147.567C158.613 336.948 167.567 327.994 167.567 316.948V182.607C167.567 171.561 158.613 162.607 147.567 162.607H32.161C21.115 162.607 12.161 171.561 12.161 182.607V215.211M479.839 504.5H234.188C223.142 504.5 214.188 495.546 214.188 484.5V182.607C214.188 171.561 223.142 162.607 234.188 162.607H479.839C490.885 162.607 499.839 171.561 499.839 182.607V484.5C499.839 495.546 490.885 504.5 479.839 504.5Z" stroke="#FF660E" stroke-width="15" stroke-miterlimit="10" stroke-linecap="round" stroke-linejoin="round"/>
<path d="M287.932 305.831C295.733 336.721 323.7 359.585 357.014 359.585C396.367 359.585 428.268 327.684 428.268 288.331C428.268 248.978 396.367 217.077 357.014 217.077C323.701 217.077 295.734 239.941 287.932 270.831M422.136 452.698H291.891C278.812 452.698 268.21 442.096 268.21 429.017C268.21 415.938 278.812 405.336 291.891 405.336H422.136C435.215 405.336 445.817 415.938 445.817 429.017C445.817 442.096 435.215 452.698 422.136 452.698Z" stroke="#FF660E" stroke-width="15" stroke-miterlimit="10" stroke-linecap="round" stroke-linejoin="round"/>
</g>
<defs>
<clipPath id="clip0_72_3470">
<rect width="512" height="512" fill="white"/>
</clipPath>
</defs>
</svg>
